# xmcd
#
# Track frame offsets:
#	150
#	9780
#	30755
#	50022
#	70906
#	86764
#	106256
#	125761
#	148148
#	159377
#	169074
#	196594
#
# Disc length: 2885 seconds
# Revision: 0
# Processed by: cddbd v1.5.2PL0 Copyright (c) Steve Scherf et al.
# Submitted via: dBpowerAMP V12.0
#
DISCID=940b430c
DTITLE=Gemma Hayes - Let It Break
DYEAR=2011
DGENRE=Acoustic
TTITLE0=Don't Let Them Cut Your Hair
TTITLE1=Keep Running
TTITLE2=All I Need
TTITLE3=Fire
TTITLE4=Brittle Winter
TTITLE5=Shock To My System
TTITLE6=To Be Beside You
TTITLE7=Ruin
TTITLE8=Sorrow Be Gone
TTITLE9=That Sky Again
TTITLE10=There's Only Love
TTITLE11=Noise
EXTD=
EXTT0=
EXTT1=
EXTT2=
EXTT3=
EXTT4=
EXTT5=
EXTT6=
EXTT7=
EXTT8=
EXTT9=
EXTT10=
EXTT11=
PLAYORDER=
